PathFileType	4	(X/Y/Z)	TVC_20_BWA6_walk_RCNL2025.trc
DataRate	CameraRate	NumFrames	NumMarkers	Units	OrigDataRate	OrigDataStartFrame	OrigNumFrames
100	100	5	27	mm	100	209	238
Frame#	Time	R_Shoulder			L_Shoulder			C7			J_Notch			R_Elbow			L_Elbow			R_Wrist			L_Wrist			R_Asis			L_Asis			R_Psis			L_Psis			Sacral			Thoracic			Sternum			R_Thigh_Lateral			R_Knee_Lateral			R_Shank_Lateral			R_Ankle_Lateral			R_Heel			R_Toe			L_Thigh_Lateral			L_Knee_Lateral			L_Shank_Lateral			L_Ankle_Lateral			L_Heel			L_Toe		
		X1	Y1	Z1	X2	Y2	Z2	X3	Y3	Z3	X4	Y4	Z4	X5	Y5	Z5	X6	Y6	Z6	X7	Y7	Z7	X8	Y8	Z8	X9	Y9	Z9	X10	Y10	Z10	X11	Y11	Z11	X12	Y12	Z12	X13	Y13	Z13	X14	Y14	Z14	X15	Y15	Z15	X16	Y16	Z16	X17	Y17	Z17	X18	Y18	Z18	X19	Y19	Z19	X20	Y20	Z20	X21	Y21	Z21	X22	Y22	Z22	X23	Y23	Z23	X24	Y24	Z24	X25	Y25	Z25	X26	Y26	Z26	X27	Y27	Z27
209	2.08000000	1561.329224	1363.964478	142.863968	1533.452026	1372.221069	-222.084930	1527.100342	1423.797485	-27.874254	1639.893921	1286.010132	-34.079800	1507.943726	1064.404053	261.203583	1426.837646	1074.677002	-309.003937	1697.199341	886.237244	236.084930	1510.138245	825.320953	-312.506332	1561.797852	964.482178	123.212219	1599.839600	965.172241	-154.108536	1423.956299	969.921326	7.515393	1422.993164	955.446899	-83.316353	1423.474731	962.684113	-37.900480	1407.347778	1199.233032	-41.575237	1648.951050	1142.963623	-34.927517	1460.412354	643.624023	177.611938	1412.255249	445.950989	99.346176	1270.931885	320.836273	140.782486	1136.087280	138.748764	49.377731	1089.283081	151.868774	-0.711680	1229.548706	28.620386	24.728455	1674.286865	623.977478	-212.156876	1752.922119	486.807922	-127.007942	1761.836426	299.112610	-172.127167	1770.063354	64.418793	-86.528633	1722.166504	54.634697	-42.961502	1908.562744	34.012573	-54.915810
210	2.09000000	1574.940674	1365.530640	141.860657	1548.253540	1372.716675	-223.262100	1541.141235	1425.014038	-29.222525	1654.199097	1287.418335	-34.704094	1520.202637	1065.847168	259.770355	1444.260376	1073.952637	-309.257935	1708.248840	886.115540	236.856880	1528.087891	824.756836	-312.290543	1577.235596	965.136536	122.577988	1614.757446	967.077576	-154.630219	1438.939941	970.555237	7.625315	1437.947021	956.695190	-83.249489	1438.443481	963.625214	-37.812087	1421.832764	1200.024170	-42.231232	1663.675049	1144.408813	-35.306416	1480.885254	642.955505	178.096985	1434.857422	443.769928	101.456322	1289.775635	322.777557	142.687943	1148.070435	147.639954	51.544983	1102.098877	164.068939	1.750966	1232.221191	30.202915	24.853992	1692.861572	628.313232	-212.355591	1767.315186	487.884186	-126.599426	1774.416504	300.339111	-171.750717	1771.075806	64.648415	-86.288116	1722.591675	55.320728	-43.318264	1909.469849	32.457397	-53.855404
211	2.10000000	1588.461548	1367.417847	140.905762	1562.965942	1373.576294	-224.370865	1555.113892	1426.557983	-30.508448	1668.402100	1289.147827	-35.274227	1532.348633	1067.645264	258.424774	1461.684692	1073.581787	-309.492462	1719.116516	886.319183	237.621834	1546.491333	824.714996	-312.069901	1592.458252	966.074646	121.939728	1629.499756	969.322327	-155.176987	1453.786865	971.485901	7.722611	1452.732300	958.306580	-83.196716	1453.259583	964.896240	-37.737052	1436.228027	1201.153198	-42.843262	1678.246704	1146.169434	-35.640881	1502.109741	642.197205	178.613892	1458.719971	441.652771	103.486359	1310.470825	324.660522	144.613571	1161.818481	157.190430	53.636669	1116.660278	176.751846	4.041647	1236.348145	32.893040	25.286179	1709.446533	631.784729	-212.749817	1780.274658	488.659119	-126.431267	1785.191284	301.182312	-171.584564	1771.733398	64.896683	-86.136497	1722.817749	55.870827	-43.756721	1910.125366	31.829603	-53.083241
212	2.11000000	1601.870850	1369.595459	140.012192	1577.569214	1374.786011	-225.399780	1569.004761	1428.403320	-31.717335	1682.487061	1291.171265	-35.779449	1544.386963	1069.770264	257.189636	1479.033691	1073.577148	-309.721985	1729.835205	886.850067	238.373489	1565.291626	825.222107	-311.842789	1607.423950	967.277100	121.318825	1644.064941	971.848145	-155.728348	1468.478638	972.699890	7.784810	1467.337524	960.258789	-83.182014	1467.908081	966.479340	-37.698602	1450.520020	1202.596802	-43.418102	1692.649780	1148.218506	-35.916428	1523.896118	641.375793	179.146835	1483.672363	439.694427	105.394882	1332.892700	326.459656	146.507416	1177.318726	167.199982	55.626148	1132.879761	189.578964	6.129337	1242.421021	36.812191	26.114117	1723.159180	633.879883	-213.242737	1791.686523	489.083954	-126.516838	1793.882080	301.544403	-171.626434	1772.123779	65.099045	-86.041107	1722.922607	56.280914	-44.200741	1910.586182	31.801966	-52.564369
213	2.12000000	1615.153198	1372.028076	139.191238	1592.047119	1376.326294	-226.339661	1582.803467	1430.520142	-32.836769	1696.442017	1293.458008	-36.211597	1556.320679	1072.189697	256.083801	1496.241821	1073.944092	-309.963562	1740.436279	887.705078	239.107437	1584.427307	826.293884	-311.607361	1622.110596	968.722412	120.730331	1658.450806	974.595703	-156.268875	1483.002319	974.181152	7.795725	1481.753296	962.525635	-83.221970	1482.377808	968.353394	-37.713122	1464.698120	1204.327637	-43.961685	1706.874146	1150.525879	-36.123203	1546.017822	640.581970	179.673691	1509.514282	438.007812	107.156052	1356.819946	328.206573	148.316727	1194.526123	177.383209	57.480984	1150.660767	202.145493	7.981434	1250.934204	41.924042	27.399158	1733.628418	634.422607	-213.766037	1801.518555	489.158264	-126.857956	1800.416992	301.433960	-171.892838	1772.315308	65.218643	-85.989349	1722.952026	56.563271	-44.607563	1910.889160	32.086712	-52.258278
